{
.appVersion = "3134";
.formatVersion = 3;
DisplayStrings = (
"นายสังฆภัณฑ์ เฮงพิทักษ์ฝั่ง ผู้เฒ่าซึ่งมีอาชีพเป็นฅนขายฃวด ถูกตำรวจปฏิบัติการจับฟ้องศาล ฐานลักนาฬิกาคุณหญิงฉัตรฎชฎาา ฌานสมาธิ",
"ุ",
"ค",
"ฅ",
"สูทบีโธเฟน",
"   "
);
customParameters = (
{
name = fsType;
value = (
);
},
{
name = "Use Typo Metrics";
value = 1;
}
);
date = "2024-10-07 13:25:42 +0000";
familyName = "Suit Beethoven";
features = (
{
automatic = 1;
code = "lookup ccmp_thai_1 {
	sub saraAm-thai by nikhahit-thai saraAa-thai;
} ccmp_thai_1;

lookup ccmp_thai_2 {
	sub [yoYing-thai]' [saraU-thai saraUu-thai] by [yoYing-thai.less];
} ccmp_thai_2;

script thai;
lookup ccmp_thai_1;
lookup ccmp_thai_2;
";
tag = ccmp;
}
);
fontMaster = (
{
customParameters = (
{
name = hheaLineGap;
value = 0;
},
{
name = typoLineGap;
value = 0;
},
{
name = winAscent;
value = 938;
},
{
name = winDescent;
value = -223;
},
{
name = hheaAscender;
value = 0;
},
{
name = hheaDescender;
value = 0;
},
{
name = typoAscender;
value = 0;
},
{
name = typoDescender;
value = 0;
}
);
guides = (
{
angle = 90;
pos = (602,-135);
},
{
angle = 90;
pos = (146,463);
},
{
pos = (190,229);
},
{
angle = 90;
pos = (521,-85);
},
{
angle = 90;
pos = (66,-76);
}
);
id = m01;
metricValues = (
{
over = 14;
pos = 714;
},
{
},
{
over = -14;
pos = -179;
},
{
over = 14;
pos = 714;
},
{
over = 9;
pos = 670;
},
{
over = 18;
pos = 493;
},
{
over = 9;
pos = 938;
},
{
over = -9;
pos = 839;
},
{
over = 9;
pos = 670;
},
{
over = -9;
pos = 536;
},
{
over = 9;
pos = -89;
},
{
over = -9;
pos = -223;
}
);
name = Regular;
userData = {
GSCornerRadius = 15;
GSExtrudeAngle = 30;
GSExtrudeOffset = 15;
};
}
);
glyphs = (
{
glyphname = "koKai-thai";
layers = (
{
anchors = (
{
name = bottomright;
pos = (602,0);
},
{
name = topright;
pos = (602,493);
}
);
hints = (
{
name = _segment.curve.top;
origin = (0,0);
type = Segment;
}
);
layerId = m01;
shapes = (
{
closed = 1;
nodes = (
(66,282,ls),
(66,282,o),
(66,232,o),
(66,232,c),
(66,216,o),
(70,187,o),
(74,170,cs),
(79,150,o),
(118,153,o),
(153,138,c),
(124,129,o),
(78,135,o),
(69,113,cs),
(67,108,o),
(66,68,o),
(66,68,c),
(66,0,l),
(146,0,l),
(146,79,ls),
(146,90,o),
(114,106,o),
(333,106,c),
(333,174,l),
(170,174,o),
(146,191,o),
(146,203,cs),
(146,229,o),
(239,241,o),
(339,241,cs),
(440,241,o),
(521,229,o),
(521,203,cs),
(521,0,l),
(602,0,l),
(602,282,l)
);
}
);
width = 668;
}
);
unicode = 3585;
},
{
glyphname = "khoKhai-thai";
kernLeft = kho;
layers = (
{
anchors = (
{
name = bottomright;
pos = (481,0);
},
{
name = topright;
pos = (481,493);
}
);
hints = (
{
name = _segment.curve.bottom;
origin = (0,0);
type = Segment;
}
);
layerId = m01;
shapes = (
{
closed = 1;
nodes = (
(57,412,l),
(57,236,l),
(96,238,o),
(144,240,o),
(177,240,cs),
(243,240,o),
(297,233,o),
(297,225,c),
(365,225,l),
(365,412,l)
);
},
{
closed = 1;
nodes = (
(181,0,l),
(455,0,l),
(455,110,l),
(399,112,l),
(399,96,o),
(369,70,o),
(279,70,c),
(279,104,o),
(365,156,o),
(365,225,c),
(298,235,l),
(298,229,o),
(296,223,o),
(293,218,c),
(293,217,o),
(292,215,o),
(290,214,c),
(264,175,o),
(182,112,o),
(182,46,c),
(181,46,l)
);
},
{
closed = 1;
nodes = (
(481,0,l),
(481,493,l),
(399,493,l),
(399,0,l)
);
}
);
width = 547;
}
);
unicode = 3586;
},
{
glyphname = "khoKhuat-thai";
kernLeft = kho;
layers = (
{
anchors = (
{
name = bottomright;
pos = (481,0);
},
{
name = topright;
pos = (481,493);
}
);
hints = (
{
name = _segment.top_invert;
origin = (0,0);
type = Segment;
}
);
layerId = m01;
shapes = (
{
closed = 1;
nodes = (
(57,479,l,{
GSSegment = {
name = _segment.curve.bottom;
};
}),
(57,236,l),
(96,238,o),
(144,240,o),
(177,240,cs),
(243,240,o),
(297,233,o),
(297,225,c),
(365,225,l),
(365,479,l)
);
},
{
closed = 1;
nodes = (
(181,0,l),
(455,0,l),
(455,110,l),
(399,112,l),
(399,96,o),
(369,70,o),
(279,70,c),
(279,104,o),
(365,156,o),
(365,225,c),
(298,235,l),
(298,229,o),
(296,223,o),
(293,218,c),
(293,217,o),
(292,215,o),
(290,214,c),
(264,175,o),
(182,112,o),
(182,46,c),
(181,46,l)
);
},
{
closed = 1;
nodes = (
(481,0,l),
(481,493,l),
(399,493,l),
(399,0,l)
);
}
);
width = 547;
}
);
unicode = 3587;
},
{
glyphname = "khoKhwai-thai";
layers = (
{
anchors = (
{
name = bottomright;
pos = (653,0);
},
{
name = topright;
pos = (653,493);
}
);
guides = (
{
pos = (280,240);
}
);
hints = (
{
name = _segment.curve.top;
origin = (0,0);
type = Segment;
}
);
layerId = m01;
shapes = (
{
closed = 1;
nodes = (
(66,282,l),
(66,0,l),
(144,0,l),
(144,41,ls),
(144,63,o),
(146,70,o),
(159,75,cs),
(178,81,o),
(241,89,o),
(350,89,c),
(496,89,l),
(496,146,l),
(146,146,l),
(146,146,o),
(146,179,o),
(146,191,cs),
(146,204,o),
(211,217,o),
(354,221,c),
(474,221,o),
(577,208,o),
(577,191,cs),
(577,0,l),
(653,0,l),
(653,282,l)
);
}
);
width = 719;
}
);
unicode = 3588;
},
{
glyphname = "khoKhon-thai";
layers = (
{
anchors = (
{
name = bottomright;
pos = (653,0);
},
{
name = topright;
pos = (653,493);
}
);
hints = (
{
name = _segment.top_invert;
origin = (0,0);
type = Segment;
}
);
layerId = m01;
shapes = (
{
closed = 1;
nodes = (
(66,478,l),
(66,0,l),
(144,0,l),
(144,41,ls),
(144,63,o),
(146,70,o),
(159,75,cs),
(178,81,o),
(241,89,o),
(350,89,c),
(496,89,l),
(496,146,l),
(146,146,l),
(146,146,o),
(146,168,o),
(146,191,cs),
(146,204,o),
(211,217,o),
(354,221,c),
(474,221,o),
(577,208,o),
(577,191,cs),
(577,0,l),
(653,0,l),
(653,478,l)
);
}
);
width = 713;
}
);
unicode = 3589;
},
{
glyphname = "khoRakhang-thai";
kernLeft = kho;
layers = (
{
anchors = (
{
name = bottomright;
pos = (481,0);
},
{
name = topright;
pos = (481,493);
}
);
hints = (
{
name = _segment.top_invert;
origin = (0,0);
type = Segment;
}
);
layerId = m01;
shapes = (
{
closed = 1;
nodes = (
(57,479,l,{
GSSegment = {
name = _segment.top_invert;
};
}),
(57,236,l),
(95,238,o),
(144,240,o),
(177,240,cs),
(243,240,o),
(297,233,o),
(297,225,c),
(365,225,l),
(365,479,l)
);
},
{
closed = 1;
nodes = (
(481,0,l),
(481,493,l),
(399,493,l),
(399,129,ls),
(399,114,o),
(358,88,o),
(269,95,c),
(269,121,o),
(365,156,o),
(365,225,c),
(297,225,l),
(297,220,o),
(296,213,o),
(292,208,c),
(292,207,o),
(291,205,o),
(289,204,c),
(263,165,o),
(191,109,o),
(182,46,c),
(181,46,l),
(181,0,l),
(269,0,l),
(269,38,l),
(283,35,ls),
(396,13,o),
(399,0,o),
(399,0,c)
);
}
);
width = 547;
}
);
unicode = 3590;
},
{
glyphname = "ngoNgu-thai";
layers = (
{
anchors = (
{
name = bottomright;
pos = (575,-4);
},
{
name = topright;
pos = (575,493);
}
);
hints = (
{
name = _segment.curve.inner.shallow;
origin = (2,2);
scale = (0.89667,1);
type = Segment;
},
{
name = _segment.curve.top;
origin = (2,5);
scale = (0.89667,1);
type = Segment;
}
);
layerId = m01;
shapes = (
{
closed = 1;
nodes = (
(575,-4,l),
(575,75,l),
(66,163,l),
(66,99,l)
);
},
{
closed = 1;
nodes = (
(495,51,l),
(575,-4,l),
(575,213,l),
(495,213,l)
);
},
{
closed = 1;
nodes = (
(66,198,l),
(146,198,l),
(495,198,l,{
GSSegment = {
name = _segment.curve.inner.shallow;
};
}),
(575,198,l),
(575,282,l),
(66,282,l,{
GSSegment = {
name = _segment.curve.top;
};
})
);
}
);
width = 641;
}
);
unicode = 3591;
},
{
glyphname = "choChan-thai";
layers = (
{
anchors = (
{
name = bottomright;
pos = (593,-1);
},
{
name = topright;
pos = (593,493);
}
);
hints = (
{
name = _segment.curve.inner.shallow;
origin = (0,2);
type = Segment;
},
{
name = _segment.curve.top;
origin = (0,5);
type = Segment;
}
);
layerId = m01;
shapes = (
{
closed = 1;
nodes = (
(57,234,l),
(137,234,l),
(513,234,l,{
GSSegment = {
name = _segment.curve.inner.shallow;
};
}),
(593,234,l),
(593,282,l),
(57,282,l,{
GSSegment = {
name = _segment.curve.top;
};
})
);
},
{
closed = 1;
nodes = (
(292,143,o),
(401,116,o),
(438,0,c),
(593,-1,l),
(593,196,l),
(513,196,l),
(504,96,o),
(493,86,o),
(479,86,cs),
(463,86,o),
(450,96,o),
(442,196,c),
(209,197,l),
(209,143,l)
);
},
{
closed = 1;
nodes = (
(513,190,l),
(593,190,l),
(593,247,l),
(513,247,l)
);
}
);
width = 659;
}
);
unicode = 3592;
},
{
glyphname = "choChing-thai";
layers = (
{
anchors = (
{
name = bottomright;
pos = (602,0);
},
{
name = topright;
pos = (602,493);
}
);
hints = (
{
name = _segment.curve.inner.shallow;
origin = (3,3);
type = Segment;
},
{
name = _segment.curve.top;
origin = (3,0);
type = Segment;
}
);
layerId = m01;
shapes = (
{
closed = 1;
nodes = (
(66,0,l),
(173,0,l),
(205,24,l),
(205,148,l),
(66,148,l)
);
},
{
closed = 1;
nodes = (
(521,180,ls),
(521,166,o),
(514,153,o),
(493,147,cs),
(150,66,l),
(173,0,l),
(575,98,l),
(602,98,l),
(602,241,l),
(522,241,l)
);
},
{
closed = 1;
nodes = (
(484,146,o),
(482,116,o),
(482,91,c),
(482,32,o),
(484,0,o),
(489,0,c),
(602,0,l),
(602,148,l),
(489,146,l)
);
},
{
closed = 1;
nodes = (
(66,282,l),
(66,198,l),
(146,198,l),
(521,198,l,{
GSSegment = {
name = _segment.curve.inner.shallow;
};
}),
(602,198,l),
(602,282,l)
);
}
);
width = 668;
}
);
unicode = 3593;
},
{
glyphname = "choChang-thai";
layers = (
{
anchors = (
{
name = bottomright;
pos = (481,0);
},
{
name = topright;
pos = (562,492);
}
);
hints = (
{
name = _segment.curve.bottom;
origin = (0,0);
type = Segment;
}
);
layerId = m01;
shapes = (
{
closed = 1;
nodes = (
(57,412,l,{
GSSegment = {
name = _segment.curve.bottom;
};
}),
(57,236,l),
(95,238,o),
(144,240,o),
(177,240,cs),
(243,240,o),
(297,233,o),
(297,225,c),
(365,225,l),
(365,412,l)
);
},
{
closed = 1;
nodes = (
(181,0,l),
(455,0,l),
(455,110,l),
(399,112,l),
(399,96,o),
(369,70,o),
(279,70,c),
(279,104,o),
(365,156,o),
(365,225,c),
(298,235,l),
(298,229,o),
(296,223,o),
(293,218,c),
(293,217,o),
(292,215,o),
(290,214,c),
(264,175,o),
(182,112,o),
(182,46,c),
(181,46,l)
);
},
{
closed = 1;
nodes = (
(481,0,l),
(481,193,l),
(458,207,o),
(444,218,o),
(444,237,cs),
(444,254,o),
(481,291,o),
(562,291,c),
(562,492,l),
(399,492,l),
(399,0,l)
);
}
);
width = 619;
}
);
unicode = 3594;
},
{
glyphname = "soSo-thai";
kernLeft = kho;
layers = (
{
anchors = (
{
name = bottomright;
pos = (481,0);
},
{
name = topright;
pos = (566,492);
}
);
hints = (
{
name = _segment.top_invert;
origin = (0,0);
type = Segment;
}
);
layerId = m01;
shapes = (
{
closed = 1;
nodes = (
(57,479,l,{
GSSegment = {
name = _segment.top_invert;
};
}),
(57,236,l),
(95,238,o),
(144,240,o),
(177,240,cs),
(243,240,o),
(297,233,o),
(297,225,c),
(365,225,l),
(365,479,l)
);
},
{
closed = 1;
nodes = (
(181,0,l),
(455,0,l),
(455,110,l),
(399,112,l),
(399,96,o),
(369,70,o),
(279,70,c),
(279,104,o),
(365,156,o),
(365,225,c),
(298,235,l),
(298,229,o),
(296,223,o),
(293,218,c),
(293,217,o),
(292,215,o),
(290,214,c),
(264,175,o),
(182,112,o),
(182,46,c),
(181,46,l)
);
},
{
closed = 1;
nodes = (
(481,0,l),
(481,193,l),
(458,207,o),
(444,218,o),
(444,237,cs),
(444,254,o),
(481,291,o),
(566,291,c),
(566,492,l),
(399,492,l),
(399,0,l)
);
}
);
width = 623;
}
);
unicode = 3595;
},
{
glyphname = "choChoe-thai";
layers = (
{
anchors = (
{
name = bottomright;
pos = (900,0);
},
{
name = topright;
pos = (900,493);
}
);
guides = (
{
angle = 90;
pos = (613,-27);
},
{
pos = (82,316);
}
);
layerId = m01;
shapes = (
{
closed = 1;
nodes = (
(829,192,l),
(828,124,o),
(838,112,o),
(699,112,cs),
(613,112,o),
(580,130,o),
(580,191,c),
(504,191,l),
(504,0,l),
(582,0,l),
(581,63,l),
(587,51,o),
(594,38,o),
(609,26,c),
(638,3,o),
(674,-7,o),
(732,-7,cs),
(820,-7,o),
(857,6,o),
(880,20,c),
(906,34,o),
(909,51,o),
(909,81,c),
(909,493,l),
(829,493,l)
);
},
{
ref = "_cho-yo-no";
}
);
width = 975;
}
);
unicode = 3596;
},
{
glyphname = "yoYing-thai";
layers = (
{
anchors = (
{
name = bottomright;
pos = (900,-105);
},
{
name = topright;
pos = (900,493);
}
);
layerId = m01;
shapes = (
{
ref = "yoYing-thai.less";
},
{
closed = 1;
nodes = (
(900,-105,l),
(900,-41,l),
(504,-41,l),
(504,-105,l)
);
}
);
width = 966;
}
);
unicode = 3597;
},
{
glyphname = "yoYing-thai.less";
layers = (
{
anchors = (
{
name = bottomright;
pos = (756,0);
},
{
name = topright;
pos = (859,493);
}
);
layerId = m01;
shapes = (
{
closed = 1;
nodes = (
(504,138,l),
(504,0,l),
(732,0,l),
(811,0,o),
(848,6,o),
(871,20,cs),
(897,34,o),
(900,51,o),
(900,81,cs),
(900,493,l),
(820,493,l),
(820,192,ls),
(820,124,o),
(796,112,o),
(699,112,cs),
(604,112,o),
(583,130,o),
(583,191,cs),
(582,219,o),
(581,242,o),
(580,282,c)
);
},
{
ref = "_cho-yo-no";
}
);
width = 966;
}
);
},
{
glyphname = "doChada-thai";
layers = (
{
anchors = (
{
name = bottomright;
pos = (646,-179);
},
{
name = topright;
pos = (646,493);
}
);
hints = (
{
name = _segment.curve.top;
origin = (0,0);
type = Segment;
}
);
layerId = m01;
shapes = (
{
closed = 1;
nodes = (
(110,282,l),
(110,82,l),
(33,82,l),
(33,0,l),
(110,0,l),
(189,0,l),
(189,184,ls),
(189,196,o),
(252,210,o),
(374,214,c),
(478,214,o),
(565,201,o),
(565,184,cs),
(565,99,l),
(565,-93,o),
(540,-122,o),
(499,-114,c),
(394,-76,l),
(271,-121,l),
(300,-179,l),
(394,-146,l),
(488,-179,l),
(488,-179,l),
(565,-179,l),
(646,-179,l),
(646,282,l)
);
}
);
width = 712;
}
);
unicode = 3598;
},
{
glyphname = "toPatak-thai";
layers = (
{
anchors = (
{
name = bottomright;
pos = (646,-179);
},
{
name = topright;
pos = (651,493);
}
);
hints = (
{
name = _segment.curve.top;
origin = (0,0);
type = Segment;
}
);
layerId = m01;
shapes = (
{
closed = 1;
nodes = (
(110,282,l),
(110,82,l),
(33,82,l),
(33,0,l),
(110,0,l),
(189,0,l),
(189,184,ls),
(189,196,o),
(252,210,o),
(374,214,c),
(478,214,o),
(565,201,o),
(565,184,cs),
(565,99,l),
(565,-93,o),
(540,-122,o),
(499,-114,c),
(394,-76,l),
(298,-111,l),
(200,-75,l),
(78,-120,l),
(106,-179,l),
(221,-137,o),
(123,-172,o),
(200,-145,c),
(300,-179,l),
(300,-179,l),
(415,-137,o),
(317,-173,o),
(394,-146,c),
(488,-179,l),
(488,-179,l),
(565,-179,l),
(646,-179,l),
(646,282,l)
);
}
);
width = 712;
}
);
unicode = 3599;
},
{
glyphname = "thoThan-thai";
layers = (
{
anchors = (
{
name = bottomright;
pos = (602,-179);
},
{
name = topright;
pos = (602,493);
}
);
hints = (
{
name = _segment.curve.top;
origin = (2,14);
type = Segment;
}
);
layerId = m01;
shapes = (
{
closed = 1;
nodes = (
(602,62,l),
(451,62,l),
(451,-65,ls),
(451,-102,o),
(444,-106,o),
(385,-106,cs),
(329,-106,o),
(288,-81,o),
(288,-65,c),
(245,-65,l),
(245,-86,o),
(204,-106,o),
(141,-106,cs),
(66,-106,l),
(66,-177,l),
(144,-177,ls),
(194,-177,o),
(247,-165,o),
(266,-153,c),
(285,-165,o),
(400,-177,o),
(451,-177,cs),
(542,-177,o),
(570,-163,o),
(584,-150,cs),
(600,-136,o),
(602,-119,o),
(602,-88,cs)
);
},
{
closed = 1;
nodes = (
(112,57,l),
(146,0,l),
(602,177,l),
(568,252,l)
);
},
{
closed = 1;
nodes = (
(66,195,l),
(66,195,o),
(146,195,o),
(146,195,c),
(146,215,o),
(221,237,o),
(339,236,c),
(417,236,o),
(495,193,o),
(495,177,c),
(494,177,o),
(602,177,o),
(602,177,c),
(602,282,l),
(66,282,l)
);
},
{
closed = 1;
nodes = (
(66,0,l),
(146,0,l),
(146,154,l),
(66,154,l)
);
}
);
width = 668;
}
);
unicode = 3600;
},
{
glyphname = "thoNangmontho-thai";
kernLeft = kho;
layers = (
{
anchors = (
{
name = bottomright;
pos = (577,0);
},
{
name = topright;
pos = (577,493);
}
);
layerId = m01;
shapes = (
{
closed = 1;
nodes = (
(410,500,o),
(183,245,o),
(183,167,c),
(181,0,l),
(263,0,l),
(262,98,ls),
(261,170,o),
(347,231,o),
(496,231,c),
(577,307,l),
(577,412,ls),
(577,442,o),
(575,459,o),
(558,473,cs),
(542,487,o),
(480,500,o),
(423,500,c)
);
},
{
closed = 1;
nodes = (
(577,0,l),
(577,313,l),
(496,268,l),
(495,0,l)
);
},
{
closed = 1;
nodes = (
(57,259,l),
(57,272,o),
(117,292,o),
(213,292,c),
(305,292,o),
(357,255,o),
(357,259,c),
(357,479,l),
(357,503,o),
(353,508,o),
(341,511,c),
(332,513,o),
(288,479,o),
(212,479,c),
(131,479,o),
(84,513,o),
(75,511,c),
(62,508,o),
(57,503,o),
(57,479,c)
);
}
);
width = 643;
}
);
unicode = 3601;
},
{
glyphname = "thoPhuthao-thai";
layers = (
{
anchors = (
{
name = bottomright;
pos = (746,0);
},
{
name = topright;
pos = (848,493);
}
);
hints = (
{
name = _segment.top_invert;
origin = (3,2);
type = Segment;
}
);
layerId = m01;
shapes = (
{
closed = 1;
nodes = (
(853,234,l),
(848,493,l),
(719,493,l),
(719,234,l)
);
},
{
closed = 1;
nodes = (
(746,0,l),
(746,493,l),
(680,493,l),
(678,417,o),
(683,296,o),
(658,137,cs),
(654,114,o),
(647,99,o),
(642,99,cs),
(624,99,o),
(604,218,o),
(604,422,cs),
(604,446,o),
(602,442,o),
(602,464,c),
(601,493,l),
(591,0,l)
);
},
{
closed = 1;
nodes = (
(518,0,l),
(602,0,l),
(602,359,l),
(521,359,l)
);
},
{
closed = 1;
nodes = (
(602,199,l),
(602,478,l),
(66,478,l,{
GSSegment = {
name = _segment.top_invert;
};
}),
(66,0,l),
(383,0,l),
(383,69,l),
(383,69,o),
(295,67,o),
(266,67,cs),
(157,67,o),
(134,69,o),
(134,91,cs),
(134,190,ls),
(134,211,o),
(212,232,o),
(334,231,cs),
(442,231,o),
(519,206,o),
(519,190,c)
);
}
);
width = 910;
}
);
unicode = 3602;
},
{
glyphname = "noNen-thai";
layers = (
{
anchors = (
{
name = bottomright;
pos = (900,0);
},
{
name = topright;
pos = (900,493);
}
);
layerId = m01;
shapes = (
{
closed = 1;
nodes = (
(504,129,l),
(504,81,ls),
(504,51,o),
(505,34,o),
(531,20,cs),
(554,6,o),
(606,-7,o),
(671,-7,cs),
(753,-7,o),
(781,3,o),
(809,26,cs),
(823,38,o),
(827,51,o),
(832,63,c),
(832,0,l),
(913,0,l),
(913,493,l),
(832,493,l),
(832,191,ls),
(832,130,o),
(808,112,o),
(713,112,cs),
(606,112,o),
(585,122,o),
(580,177,c)
);
},
{
ref = "_cho-yo-no";
}
);
width = 966;
}
);
unicode = 3603;
},
{
glyphname = "doDek-thai";
layers = (
{
anchors = (
{
name = bottomright;
pos = (602,0);
},
{
name = topright;
pos = (602,493);
}
);
hints = (
{
name = _segment.curve.top;
origin = (0,0);
type = Segment;
}
);
layerId = m01;
shapes = (
{
closed = 1;
nodes = (
(66,282,l),
(66,0,l),
(383,0,l),
(383,70,l),
(383,70,o),
(295,68,o),
(266,68,cs),
(157,68,o),
(134,70,o),
(134,92,cs),
(134,190,ls),
(134,217,o),
(230,229,o),
(334,229,cs),
(438,229,o),
(521,217,o),
(521,190,cs),
(521,0,l),
(602,0,l),
(602,282,l)
);
}
);
width = 668;
}
);
unicode = 3604;
},
{
glyphname = "toTao-thai";
layers = (
{
anchors = (
{
name = bottomright;
pos = (602,0);
},
{
name = topright;
pos = (602,493);
}
);
hints = (
{
name = _segment.top_invert;
origin = (0,9);
type = Segment;
}
);
layerId = m01;
shapes = (
{
closed = 1;
nodes = (
(146,217,o),
(239,229,o),
(339,229,cs),
(440,229,o),
(521,217,o),
(521,190,cs),
(521,0,l),
(602,0,l),
(602,478,l),
(66,478,l),
(66,0,l),
(383,0,l),
(383,67,l),
(383,67,o),
(299,65,o),
(271,65,cs),
(168,65,o),
(146,67,o),
(146,89,cs),
(146,190,ls)
);
}
);
width = 668;
}
);
unicode = 3605;
},
{
glyphname = "thoThung-thai";
layers = (
{
anchors = (
{
name = bottomright;
pos = (602,0);
},
{
name = topright;
pos = (602,493);
}
);
layerId = m01;
shapes = (
{
closed = 1;
nodes = (
(97,0,l),
(133,0,o),
(163,0,o),
(199,0,c),
(199,58,l),
(97,58,l)
);
},
{
ref = "koKai-thai";
}
);
width = 668;
}
);
unicode = 3606;
},
{
glyphname = "thoThahan-thai";
layers = (
{
anchors = (
{
name = bottomright;
pos = (602,0);
},
{
name = topright;
pos = (602,493);
}
);
layerId = m01;
shapes = (
{
closed = 1;
nodes = (
(523,0,l),
(602,0,l),
(602,414,l),
(602,445,o),
(599,462,o),
(569,476,c),
(542,489,o),
(473,503,o),
(372,503,cs),
(275,503,o),
(209,493,o),
(175,470,c),
(158,458,o),
(153,445,o),
(146,432,c),
(146,493,l),
(66,493,l),
(66,0,l),
(146,0,l),
(146,190,ls),
(146,217,o),
(239,229,o),
(339,229,cs),
(440,229,o),
(521,217,o),
(521,190,cs)
);
}
);
width = 668;
}
);
unicode = 3607;
},
{
glyphname = "thoThong-thai";
layers = (
{
anchors = (
{
name = bottomright;
pos = (603,0);
},
{
name = topright;
pos = (643,511);
}
);
guides = (
{
pos = (163,508);
},
{
angle = 90;
pos = (164,299);
},
{
angle = 90;
pos = (75,299);
},
{
angle = 90;
pos = (30,349);
}
);
layerId = m01;
shapes = (
{
closed = 1;
nodes = (
(67,126,l),
(146,126,l),
(146,268,l),
(67,268,l)
);
},
{
closed = 1;
nodes = (
(146,427,o),
(138,441,o),
(217,441,cs),
(482,441,o),
(282,394,o),
(496,394,cs),
(643,394,o),
(643,388,o),
(643,411,cs),
(643,446,o),
(643,441,o),
(643,465,c),
(534,465,l),
(282,465,o),
(509,508,o),
(248,508,cs),
(171,508,o),
(108,504,o),
(91,488,cs),
(65,465,o),
(66,416,o),
(66,333,cs),
(66,312,l),
(146,312,l),
(464,312,o),
(538,283,o),
(538,269,cs),
(538,248,o),
(522,225,o),
(146,225,cs),
(67,225,l),
(67,0,l),
(84,0,ls),
(530,0,o),
(563,19,o),
(583,30,cs),
(596,38,o),
(603,57,o),
(603,87,cs),
(603,321,ls),
(603,344,o),
(602,379,o),
(146,379,c)
);
},
{
closed = 1;
nodes = (
(563,446,l),
(643,446,l),
(643,511,l),
(563,511,l)
);
}
);
width = 709;
}
);
unicode = 3608;
},
{
glyphname = "noNu-thai";
layers = (
{
anchors = (
{
name = bottomright;
pos = (602,0);
},
{
name = topright;
pos = (602,493);
}
);
layerId = m01;
shapes = (
{
closed = 1;
nodes = (
(66,493,l),
(66,81,l),
(66,51,o),
(69,34,o),
(99,20,c),
(126,6,o),
(195,-7,o),
(296,-7,c),
(393,-7,o),
(459,3,o),
(493,26,c),
(510,38,o),
(515,51,o),
(521,63,c),
(521,0,l),
(602,0,l),
(602,493,l),
(521,493,l),
(521,333,l),
(521,272,o),
(476,254,o),
(346,254,c),
(186,254,o),
(146,266,o),
(146,334,c),
(146,493,l)
);
}
);
width = 668;
}
);
unicode = 3609;
},
{
glyphname = "boBaimai-thai";
layers = (
{
anchors = (
{
name = bottomright;
pos = (602,0);
},
{
name = topright;
pos = (602,493);
}
);
layerId = m01;
shapes = (
{
closed = 1;
nodes = (
(435,-7,o),
(542,6,o),
(569,20,cs),
(599,34,o),
(602,51,o),
(602,81,c),
(602,493,l),
(521,493,l),
(521,333,ls),
(521,265,o),
(464,254,o),
(334,254,cs),
(204,254,o),
(146,266,o),
(146,334,c),
(146,493,l),
(66,493,l),
(66,81,l),
(66,51,o),
(69,34,o),
(99,20,c),
(126,6,o),
(233,-7,o),
(334,-7,cs)
);
}
);
width = 668;
}
);
unicode = 3610;
},
{
glyphname = "poPla-thai";
layers = (
{
anchors = (
{
name = bottomright;
pos = (604,0);
},
{
name = topright;
pos = (464,493);
}
);
layerId = m01;
shapes = (
{
closed = 1;
nodes = (
(435,-7,o),
(542,6,o),
(569,20,cs),
(599,34,o),
(602,51,o),
(602,81,c),
(602,670,l),
(521,670,l),
(521,333,l),
(521,265,o),
(464,254,o),
(334,254,cs),
(204,254,o),
(146,266,o),
(146,334,c),
(146,493,l),
(66,493,l),
(66,81,l),
(66,51,o),
(69,34,o),
(99,20,c),
(126,6,o),
(233,-7,o),
(334,-7,cs)
);
}
);
width = 668;
}
);
unicode = 3611;
},
{
glyphname = "phoPhung-thai";
kernLeft = kho;
layers = (
{
anchors = (
{
name = bottomright;
pos = (603,0);
},
{
name = topright;
pos = (816,493);
}
);
layerId = m01;
shapes = (
{
closed = 1;
nodes = (
(383,0,l),
(387,37,o),
(387,86,o),
(436,185,c),
(471,125,o),
(490,65,o),
(494,0,c),
(603,0,l),
(607,41,o),
(608,86,o),
(636,134,c),
(677,207,o),
(736,221,o),
(816,222,c),
(816,493,l),
(591,493,l),
(591,412,l),
(591,211,o),
(564,103,o),
(544,103,c),
(535,103,o),
(529,115,o),
(525,131,c),
(486,261,o),
(498,386,o),
(494,493,c),
(383,493,l),
(379,417,o),
(387,296,o),
(353,137,c),
(348,114,o),
(338,99,o),
(331,99,c),
(308,99,o),
(280,218,o),
(280,422,c),
(280,446,o),
(280,471,o),
(281,493,c),
(57,493,l),
(57,222,l),
(130,218,o),
(194,214,o),
(241,129,c),
(266,83,o),
(271,40,o),
(276,0,c)
);
},
{
closed = 1;
nodes = (
(280,347,l),
(280,393,l),
(280,399,o),
(285,413,o),
(331,413,c),
(331,493,l),
(204,493,l),
(204,347,l)
);
}
);
width = 882;
}
);
unicode = 3612;
},
{
glyphname = "foFa-thai";
kernLeft = kho;
layers = (
{
anchors = (
{
name = bottomright;
pos = (603,0);
},
{
name = topright;
pos = (494,493);
}
);
layerId = m01;
shapes = (
{
closed = 1;
nodes = (
(57,493,l),
(57,222,l),
(130,218,o),
(194,214,o),
(241,129,c),
(266,83,o),
(271,40,o),
(276,0,c),
(383,0,l),
(387,37,o),
(387,86,o),
(436,185,c),
(471,125,o),
(490,65,o),
(494,0,c),
(603,0,l),
(607,41,o),
(608,86,o),
(636,134,c),
(677,207,o),
(736,221,o),
(816,222,c),
(816,670,l),
(591,670,l),
(591,412,l),
(591,211,o),
(564,103,o),
(544,103,c),
(535,103,o),
(529,115,o),
(525,131,c),
(486,261,o),
(498,386,o),
(494,493,c),
(383,493,l),
(379,417,o),
(387,296,o),
(353,137,c),
(348,114,o),
(338,99,o),
(331,99,c),
(308,99,o),
(280,218,o),
(280,422,c),
(280,446,o),
(280,471,o),
(281,493,c)
);
},
{
closed = 1;
nodes = (
(280,347,l),
(280,393,l),
(280,399,o),
(285,413,o),
(331,413,c),
(331,493,l),
(204,493,l),
(204,347,l)
);
}
);
width = 882;
}
);
unicode = 3613;
},
{
glyphname = "phoPhan-thai";
kernLeft = kho;
layers = (
{
anchors = (
{
name = bottomright;
pos = (603,0);
},
{
name = topright;
pos = (816,493);
}
);
layerId = m01;
shapes = (
{
closed = 1;
nodes = (
(57,493,l),
(57,222,l),
(130,218,o),
(194,214,o),
(241,129,c),
(266,83,o),
(271,40,o),
(276,0,c),
(383,0,l),
(387,37,o),
(387,86,o),
(436,185,c),
(471,125,o),
(490,65,o),
(494,0,c),
(603,0,l),
(607,41,o),
(608,86,o),
(636,134,c),
(677,207,o),
(736,221,o),
(816,222,c),
(816,493,l),
(591,493,l),
(591,412,l),
(591,211,o),
(564,103,o),
(544,103,c),
(535,103,o),
(529,115,o),
(525,131,c),
(486,261,o),
(498,386,o),
(494,493,c),
(383,493,l),
(379,417,o),
(387,296,o),
(353,137,c),
(348,114,o),
(338,99,o),
(331,99,c),
(308,99,o),
(280,218,o),
(280,422,c),
(280,446,o),
(280,471,o),
(281,493,c)
);
}
);
width = 882;
}
);
unicode = 3614;
},
{
glyphname = "foFan-thai";
kernLeft = kho;
layers = (
{
anchors = (
{
name = bottomright;
pos = (603,0);
},
{
name = topright;
pos = (494,493);
}
);
layerId = m01;
shapes = (
{
closed = 1;
nodes = (
(57,493,l),
(57,222,l),
(130,218,o),
(194,214,o),
(241,129,c),
(266,83,o),
(271,40,o),
(276,0,c),
(383,0,l),
(387,37,o),
(387,86,o),
(436,185,c),
(471,125,o),
(490,65,o),
(494,0,c),
(603,0,l),
(607,41,o),
(608,86,o),
(636,134,c),
(677,207,o),
(736,221,o),
(816,222,c),
(816,670,l),
(591,670,l),
(591,412,l),
(591,211,o),
(564,103,o),
(544,103,c),
(535,103,o),
(529,115,o),
(525,131,c),
(486,261,o),
(498,386,o),
(494,493,c),
(383,493,l),
(379,417,o),
(387,296,o),
(353,137,c),
(348,114,o),
(338,99,o),
(331,99,c),
(308,99,o),
(280,218,o),
(280,422,c),
(280,446,o),
(280,471,o),
(281,493,c)
);
}
);
width = 882;
}
);
unicode = 3615;
},
{
glyphname = "phoSamphao-thai";
layers = (
{
anchors = (
{
name = bottomright;
pos = (620,0);
},
{
name = topright;
pos = (620,493);
}
);
layerId = m01;
shapes = (
{
closed = 1;
nodes = (
(33,0,l),
(69,0,o),
(99,0,o),
(135,0,c),
(135,58,l),
(33,58,l)
);
},
{
pos = (18,0);
ref = "koKai-thai";
}
);
width = 686;
}
);
unicode = 3616;
},
{
glyphname = "moMa-thai";
layers = (
{
anchors = (
{
name = bottomright;
pos = (602,0);
},
{
name = topright;
pos = (602,493);
}
);
layerId = m01;
shapes = (
{
closed = 1;
nodes = (
(521,334,l),
(521,266,o),
(482,254,o),
(322,254,cs),
(192,254,o),
(146,272,o),
(146,333,c),
(146,493,l),
(66,493,l),
(66,0,l),
(146,0,l),
(146,63,l),
(152,51,o),
(158,38,o),
(175,26,c),
(209,3,o),
(275,-7,o),
(372,-7,cs),
(473,-7,o),
(542,6,o),
(569,20,c),
(599,34,o),
(602,51,o),
(602,81,c),
(602,493,l),
(521,493,l)
);
}
);
width = 668;
}
);
unicode = 3617;
},
{
glyphname = "yoYak-thai";
layers = (
{
anchors = (
{
name = bottomright;
pos = (521,0);
},
{
name = topright;
pos = (521,493);
}
);
hints = (
{
name = _segment.curve.bottom;
origin = (0,30);
type = Segment;
}
);
layerId = m01;
shapes = (
{
closed = 1;
nodes = (
(443,320,l),
(443,281,o),
(438,265,o),
(424,252,cs),
(400,229,o),
(351,229,o),
(297,229,cs),
(161,229,o),
(146,254,o),
(146,278,cs),
(146,316,o),
(161,330,o),
(371,330,c),
(371,386,l),
(359,386,ls),
(276,386,o),
(146,396,o),
(146,412,cs),
(146,428,o),
(276,438,o),
(359,438,cs),
(371,438,l),
(371,493,ls),
(371,513,o),
(114,514,o),
(73,499,cs),
(69,497,o),
(66,493,o),
(66,452,cs),
(66,85,l),
(523,85,l),
(521,493,l),
(443,493,l)
);
}
);
width = 589;
}
);
unicode = 3618;
},
{
glyphname = "roRua-thai";
layers = (
{
anchors = (
{
name = bottomright;
pos = (662,0);
},
{
name = topright;
pos = (662,493);
}
);
layerId = m01;
shapes = (
{
closed = 1;
nodes = (
(68,163,o),
(59,130,o),
(113,129,cs),
(404,115,o),
(544,113,o),
(544,94,cs),
(544,79,o),
(508,70,o),
(439,67,c),
(437,-6,l),
(534,-5,o),
(603,-1,o),
(637,4,cs),
(664,8,o),
(665,37,o),
(665,98,cs),
(665,158,o),
(671,183,o),
(622,184,cs),
(369,188,o),
(221,196,o),
(179,205,cs),
(156,210,o),
(140,213,o),
(140,225,cs),
(140,243,o),
(218,250,o),
(371,250,cs),
(542,250,o),
(639,242,o),
(662,241,c),
(662,486,l),
(624,492,o),
(529,500,o),
(388,500,cs),
(316,500,o),
(239,496,o),
(158,491,cs),
(48,484,o),
(68,488,o),
(68,311,cs)
);
}
);
width = 731;
}
);
unicode = 3619;
},
{
glyphname = "ru-thai";
layers = (
{
anchors = (
{
name = bottomright;
pos = (477,0);
},
{
name = topright;
pos = (602,493);
}
);
layerId = m01;
shapes = (
{
closed = 1;
nodes = (
(521,-188,l),
(602,-188,l),
(602,42,l),
(521,42,l)
);
},
{
ref = "thoThung-thai";
}
);
width = 665;
}
);
unicode = 3620;
},
{
glyphname = "loLing-thai";
layers = (
{
anchors = (
{
name = bottomright;
pos = (602,0);
},
{
name = topright;
pos = (602,493);
}
);
hints = (
{
name = _segment.curve.inner.shallow;
origin = (2,3);
type = Segment;
},
{
name = _segment.curve.top;
origin = (2,0);
type = Segment;
}
);
layerId = m01;
shapes = (
{
closed = 1;
nodes = (
(146,82,l),
(147,95,o),
(213,97,o),
(336,80,c),
(439,63,o),
(524,35,o),
(521,0,c),
(569,43,l),
(571,73,o),
(570,90,o),
(542,106,c),
(518,121,o),
(419,142,o),
(324,149,c),
(229,155,o),
(128,149,o),
(102,138,c),
(72,126,o),
(68,109,o),
(66,79,c)
);
},
{
closed = 1;
nodes = (
(67,0,l),
(146,0,l),
(146,82,l),
(66,79,l)
);
},
{
closed = 1;
nodes = (
(66,282,l),
(66,189,l),
(146,189,l),
(521,182,l,{
GSSegment = {
name = _segment.curve.inner.shallow;
};
}),
(602,182,l),
(602,282,l)
);
},
{
closed = 1;
nodes = (
(521,0,l),
(602,0,l),
(602,239,l),
(521,239,l)
);
}
);
width = 668;
}
);
unicode = 3621;
},
{
glyphname = "woWaen-thai";
layers = (
{
anchors = (
{
name = bottomright;
pos = (592,0);
},
{
name = topright;
pos = (592,493);
}
);
hints = (
{
name = _segment.curve.top;
origin = (2,5);
type = Segment;
},
{
name = _segment.curve.inner.shallow;
origin = (2,2);
type = Segment;
}
);
layerId = m01;
shapes = (
{
closed = 1;
nodes = (
(513,0,l),
(592,0,l),
(592,249,l),
(513,249,l)
);
},
{
closed = 1;
nodes = (
(420,0,l),
(592,0,l),
(592,67,l),
(420,67,l)
);
},
{
closed = 1;
nodes = (
(57,194,l),
(137,194,l),
(513,194,l),
(593,194,l),
(593,282,l),
(57,282,l)
);
}
);
width = 659;
}
);
unicode = 3623;
},
{
glyphname = "soSala-thai";
kernRight = soSala;
layers = (
{
anchors = (
{
name = bottomright;
pos = (653,0);
},
{
name = topright;
pos = (720,493);
}
);
layerId = m01;
shapes = (
{
ref = "khoKhwai-thai";
},
{
closed = 1;
nodes = (
(385,427,l),
(720,427,l),
(720,500,l),
(385,500,l)
);
}
);
width = 729;
}
);
unicode = 3624;
},
{
glyphname = "soRusi-thai";
layers = (
{
anchors = (
{
name = bottomright;
pos = (602,0);
},
{
name = topright;
pos = (602,493);
}
);
layerId = m01;
shapes = (
{
closed = 1;
nodes = (
(146,133,l),
(146,493,l),
(66,493,l),
(66,133,l)
);
},
{
closed = 1;
nodes = (
(66,56,o),
(69,39,o),
(99,25,cs),
(126,12,o),
(233,-2,o),
(334,-2,cs),
(435,-2,o),
(542,12,o),
(569,25,cs),
(599,39,o),
(602,56,o),
(602,87,cs),
(602,264,l),
(602,264,o),
(521,264,o),
(521,264,c),
(521,248,o),
(445,223,o),
(339,223,c),
(221,222,o),
(146,244,o),
(146,264,c),
(146,264,o),
(66,264,o),
(66,264,c),
(66,87,ls)
);
},
{
closed = 1;
nodes = (
(602,332,l),
(602,338,o),
(602,349,o),
(655,349,cs),
(685,349,l),
(685,415,l),
(655,415,l),
(602,415,o),
(602,427,o),
(602,432,c),
(602,493,l),
(521,493,l),
(521,432,l),
(521,415,o),
(474,415,o),
(420,415,c),
(389,415,l),
(389,349,l),
(420,349,ls),
(474,349,o),
(521,349,o),
(521,332,c),
(521,133,l),
(602,133,l)
);
}
);
width = 694;
}
);
unicode = 3625;
},
{
glyphname = "soSua-thai";
kernRight = soSala;
layers = (
{
anchors = (
{
name = bottomright;
pos = (602,0);
},
{
name = topright;
pos = (669,493);
}
);
layerId = m01;
shapes = (
{
ref = "loLing-thai";
},
{
closed = 1;
nodes = (
(334,427,l),
(669,427,l),
(669,500,l),
(334,500,l)
);
}
);
width = 678;
}
);
unicode = 3626;
},
{
glyphname = "hoHip-thai";
layers = (
{
anchors = (
{
name = bottomright;
pos = (604,0);
},
{
name = topright;
pos = (603,493);
}
);
layerId = m01;
shapes = (
{
closed = 1;
nodes = (
(66,0,l),
(163,0,l),
(163,88,ls),
(163,108,o),
(244,129,o),
(345,129,cs),
(450,128,o),
(521,104,o),
(521,88,cs),
(521,0,l),
(602,0,l),
(602,270,ls),
(602,300,o),
(599,317,o),
(569,331,cs),
(542,345,o),
(440,358,o),
(339,358,cs),
(271,358,o),
(211,352,o),
(163,344,c),
(163,493,l),
(66,493,l)
);
},
{
closed = 1;
nodes = (
(388,331,o),
(415,331,o),
(501,331,cs),
(581,331,o),
(606,332,o),
(606,359,cs),
(606,367,o),
(606,435,o),
(605,443,cs),
(602,496,o),
(581,502,o),
(502,502,cs),
(423,502,o),
(392,502,o),
(388,445,cs),
(388,436,o),
(388,371,o),
(388,359,cs)
);
},
{
closed = 1;
nodes = (
(437,388,o),
(463,398,o),
(497,398,cs),
(531,398,o),
(558,388,o),
(558,379,cs),
(558,369,o),
(531,359,o),
(497,359,cs),
(463,359,o),
(437,369,o),
(437,379,cs)
);
}
);
width = 672;
}
);
unicode = 3627;
},
{
glyphname = "loChula-thai";
kernLeft = kho;
layers = (
{
anchors = (
{
name = bottomright;
pos = (602,0);
},
{
name = topright;
pos = (494,493);
}
);
layerId = m01;
shapes = (
{
closed = 1;
nodes = (
(722,429,l),
(868,429,l),
(868,493,l),
(722,493,l)
);
},
{
ref = "phoPhan-thai";
},
{
closed = 1;
nodes = (
(592,465,o),
(620,465,o),
(708,465,cs),
(791,465,o),
(816,466,o),
(816,493,cs),
(816,501,o),
(816,569,o),
(815,577,cs),
(812,629,o),
(791,636,o),
(709,636,cs),
(628,636,o),
(596,636,o),
(592,579,cs),
(591,570,o),
(591,504,o),
(591,493,cs)
);
},
{
closed = 1;
nodes = (
(642,522,o),
(668,532,o),
(704,532,cs),
(739,532,o),
(766,522,o),
(766,513,cs),
(766,503,o),
(739,493,o),
(704,493,cs),
(668,493,o),
(642,503,o),
(642,513,cs)
);
}
);
width = 877;
}
);
unicode = 3628;
},
{
glyphname = "oAng-thai";
layers = (
{
anchors = (
{
name = bottomright;
pos = (597,0);
},
{
name = topright;
pos = (597,493);
}
);
guides = (
{
pos = (583,110);
}
);
hints = (
{
name = _segment.curve.top;
origin = (0,0);
scale = (0.99174,1);
type = Segment;
}
);
layerId = m01;
shapes = (
{
closed = 1;
nodes = (
(66,282,l),
(66,229,l),
(145,231,l),
(146,272,o),
(206,282,o),
(334,282,cs),
(500,282,o),
(518,253,o),
(518,214,cs),
(518,170,o),
(525,122,o),
(503,96,cs),
(479,68,o),
(424,58,o),
(335,58,cs),
(263,58,o),
(167,64,o),
(148,72,cs),
(133,79,o),
(130,96,o),
(135,106,cs),
(142,121,o),
(231,138,o),
(335,138,c),
(335,196,l),
(66,188,l),
(64,129,o),
(63,18,o),
(66,13,cs),
(71,5,o),
(171,-3,o),
(334,-3,cs),
(535,-3,o),
(580,0,o),
(588,8,cs),
(598,18,o),
(597,64,o),
(597,282,c)
);
}
);
width = 660;
}
);
unicode = 3629;
},
{
glyphname = "hoNokhuk-thai";
layers = (
{
anchors = (
{
name = bottomright;
pos = (491,0);
},
{
name = topright;
pos = (550,493);
}
);
layerId = m01;
shapes = (
{
closed = 1;
nodes = (
(380,350,o),
(338,362,o),
(338,375,cs),
(338,389,o),
(380,401,o),
(430,401,c),
(480,401,o),
(521,389,o),
(521,375,cs),
(521,362,o),
(480,350,o),
(430,350,cs)
);
},
{
ref = "oAng-thai";
},
{
closed = 1;
nodes = (
(319,286,l),
(654,286,l),
(654,350,l),
(319,350,l)
);
}
);
width = 663;
}
);
unicode = 3630;
},
{
glyphname = "saraA-thai";
layers = (
{
layerId = m01;
shapes = (
{
closed = 1;
nodes = (
(6,382,o),
(0,379,o),
(0,364,cs),
(0,244,ls),
(0,231,o),
(6,229,o),
(45,229,cs),
(234,229,l),
(234,289,l),
(143,289,l),
(143,365,ls),
(143,379,o),
(137,382,o),
(98,382,cs),
(45,382,ls)
);
},
{
closed = 1;
nodes = (
(6,172,o),
(0,169,o),
(0,154,cs),
(0,35,ls),
(0,22,o),
(6,21,o),
(45,21,cs),
(234,21,l),
(234,80,l),
(143,80,l),
(143,155,ls),
(143,170,o),
(137,172,o),
(98,172,cs),
(45,172,ls)
);
}
);
width = 267;
}
);
unicode = 3632;
},
{
glyphname = "saraAa-thai";
layers = (
{
hints = (
{
name = _segment.curve.top;
origin = (0,11);
type = Segment;
}
);
layerId = m01;
shapes = (
{
closed = 1;
nodes = (
(100,256,l),
(100,271,o),
(157,282,o),
(233,282,cs),
(304,282,o),
(363,271,o),
(363,255,cs),
(363,254,l),
(363,0,l),
(442,0,l),
(445,282,l),
(30,282,l),
(30,259,o),
(30,286,o),
(30,256,c)
);
}
);
width = 478;
}
);
unicode = 3634;
},
{
glyphname = "saraAm-thai";
layers = (
{
layerId = m01;
shapes = (
{
closed = 1;
nodes = (
(-32,530,o),
(-12,530,o),
(50,530,cs),
(109,530,o),
(128,531,o),
(128,555,cs),
(128,563,o),
(128,624,o),
(127,632,cs),
(124,679,o),
(109,685,o),
(51,685,cs),
(-7,685,o),
(-29,685,o),
(-32,633,cs),
(-33,625,o),
(-33,566,o),
(-33,555,cs)
);
},
{
closed = 1;
nodes = (
(3,596,o),
(22,605,o),
(47,605,cs),
(72,605,o),
(92,596,o),
(92,587,cs),
(92,576,o),
(72,566,o),
(47,566,cs),
(22,566,o),
(3,576,o),
(3,587,cs)
);
},
{
pos = (15,0);
ref = "saraAa-thai";
}
);
width = 463;
}
);
unicode = 3635;
},
{
glyphname = "saraE-thai";
kernRight = sara;
layers = (
{
layerId = m01;
shapes = (
{
closed = 1;
nodes = (
(66,0,l),
(152,0,l),
(150,493,l),
(68,493,l)
);
},
{
closed = 1;
nodes = (
(219,98,ls),
(219,146,o),
(216,152,o),
(202,152,cs),
(151,152,l),
(151,234,l),
(91,234,l),
(91,45,ls),
(91,6,o),
(93,0,o),
(105,0,cs),
(201,0,ls),
(215,0,o),
(219,6,o),
(219,45,cs)
);
}
);
width = 219;
}
);
unicode = 3648;
},
{
glyphname = "saraAe-thai";
kernRight = sara;
layers = (
{
layerId = m01;
shapes = (
{
closed = 1;
nodes = (
(66,0,l),
(152,0,l),
(150,493,l),
(68,493,l)
);
},
{
closed = 1;
nodes = (
(219,98,ls),
(219,146,o),
(216,152,o),
(202,152,cs),
(151,152,l),
(151,234,l),
(91,234,l),
(91,45,ls),
(91,6,o),
(93,0,o),
(105,0,cs),
(201,0,ls),
(215,0,o),
(219,6,o),
(219,45,cs)
);
},
{
closed = 1;
nodes = (
(265,0,l),
(351,0,l),
(349,493,l),
(267,493,l)
);
},
{
closed = 1;
nodes = (
(418,98,ls),
(418,146,o),
(415,152,o),
(401,152,cs),
(350,152,l),
(350,234,l),
(290,234,l),
(290,45,ls),
(290,6,o),
(292,0,o),
(304,0,cs),
(400,0,ls),
(414,0,o),
(418,6,o),
(418,45,cs)
);
}
);
width = 418;
}
);
unicode = 3649;
},
{
glyphname = "saraO-thai";
kernLeft = saraO;
layers = (
{
layerId = m01;
shapes = (
{
closed = 1;
nodes = (
(-66,642,l),
(20,642,o),
(82,632,o),
(82,509,c),
(79,0,l),
(259,0,l),
(259,72,l),
(180,72,l),
(164,72,o),
(154,77,o),
(154,259,c),
(154,571,l),
(294,571,l),
(294,683,l),
(294,713,o),
(292,716,o),
(275,719,c),
(261,721,o),
(201,722,o),
(146,722,c),
(89,722,o),
(-33,721,o),
(-47,719,c),
(-64,716,o),
(-66,713,o),
(-66,683,c)
);
}
);
width = 294;
}
);
unicode = 3650;
},
{
glyphname = "saraAiMaimuan-thai";
kernLeft = saraO;
kernRight = sara;
layers = (
{
layerId = m01;
shapes = (
{
closed = 1;
nodes = (
(66,562,l),
(66,674,l),
(66,704,o),
(69,707,o),
(77,710,c),
(84,712,o),
(116,713,o),
(146,713,c),
(185,713,o),
(245,712,o),
(259,710,c),
(276,707,o),
(278,704,o),
(278,674,c),
(278,633,l),
(278,406,ls),
(278,171,o),
(290,152,o),
(327,152,cs),
(363,152,l),
(363,0,l),
(203,0,l),
(205,562,l)
);
}
);
width = 363;
}
);
unicode = 3651;
},
{
glyphname = "saraAiMaimalai-thai";
kernRight = sara;
layers = (
{
layerId = m01;
shapes = (
{
closed = 1;
nodes = (
(-66,714,o),
(-62,732,o),
(-50,729,c),
(-41,726,o),
(4,692,o),
(78,692,c),
(157,692,o),
(204,726,o),
(214,729,c),
(226,732,o),
(231,714,o),
(231,692,c),
(231,259,l),
(231,77,o),
(241,72,o),
(257,72,c),
(336,72,l),
(336,0,l),
(156,0,l),
(159,540,l),
(-66,540,l),
(-66,692,l)
);
}
);
width = 336;
}
);
unicode = 3652;
},
{
glyphname = "lakkhangyao-thai";
layers = (
{
hints = (
{
name = _segment.curve.top;
origin = (0,4);
type = Segment;
},
{
name = _segment.curve.top;
origin = (0,5);
type = Segment;
}
);
layerId = m01;
shapes = (
{
closed = 1;
nodes = (
(183,259,l),
(181,-179,l),
(263,-179,l),
(265,259,l),
(0,259,l,{
GSSegment = {
name = _segment.curve.top;
};
}),
(0,259,l,{
GSSegment = {
name = _segment.curve.top;
};
})
);
}
);
width = 536;
}
);
unicode = 3653;
},
{
glyphname = "zero-thai";
layers = (
{
guides = (
{
pos = (15,514);
},
{
angle = 90;
pos = (397,521);
}
);
layerId = m01;
shapes = (
{
closed = 1;
nodes = (
(184,501,o),
(98,484,o),
(86,459,cs),
(76,440,o),
(66,354,o),
(66,179,cs),
(66,96,o),
(76,44,o),
(86,32,cs),
(98,17,o),
(207,-8,o),
(361,-8,cs),
(514,-8,o),
(615,17,o),
(628,32,cs),
(638,44,o),
(647,96,o),
(647,179,cs),
(647,354,o),
(638,440,o),
(628,459,cs),
(615,484,o),
(525,501,o),
(354,501,cs)
);
},
{
closed = 1;
nodes = (
(513,194,o),
(575,163,o),
(575,142,c),
(575,114,o),
(474,83,o),
(354,83,cs),
(235,83,o),
(132,114,o),
(132,142,c),
(132,163,o),
(196,194,o),
(354,194,cs)
);
}
);
width = 713;
}
);
unicode = 3664;
},
{
glyphname = "one-thai";
layers = (
{
guides = (
{
angle = 90;
pos = (445,120);
},
{
angle = 90;
pos = (337,86);
}
);
layerId = m01;
shapes = (
{
closed = 1;
nodes = (
(518,114,l),
(477,102,o),
(421,92,o),
(354,92,cs),
(235,92,o),
(132,123,o),
(132,151,c),
(132,177,o),
(196,225,o),
(354,225,cs),
(513,225,o),
(575,194,o),
(575,157,cs),
(575,59,o),
(555,22,o),
(540,0,c),
(619,0,l),
(629,12,o),
(647,96,o),
(647,179,cs),
(647,354,o),
(638,440,o),
(628,459,cs),
(615,484,o),
(525,501,o),
(354,501,cs),
(184,501,o),
(98,484,o),
(86,459,cs),
(76,441,o),
(66,360,o),
(66,194,cs),
(66,116,o),
(76,67,o),
(86,56,cs),
(98,42,o),
(207,18,o),
(361,18,cs),
(419,18,o),
(452,21,o),
(494,26,c)
);
}
);
width = 713;
}
);
unicode = 3665;
},
{
glyphname = "two-thai";
layers = (
{
layerId = m01;
shapes = (
{
closed = 1;
nodes = (
(66,262,ls),
(66,68,o),
(71,0,o),
(228,0,cs),
(602,0,l),
(602,73,l),
(230,73,ls),
(146,73,o),
(137,104,o),
(137,288,cs),
(137,507,l),
(66,507,l)
);
},
{
closed = 1;
nodes = (
(522,0,l),
(602,0,l),
(602,466,ls),
(602,472,o),
(581,477,o),
(514,477,cs),
(435,477,o),
(421,472,o),
(421,466,cs),
(415,413,o),
(403,375,o),
(390,375,cs),
(376,375,o),
(360,413,o),
(360,466,cs),
(360,472,o),
(336,477,o),
(273,477,cs),
(202,477,o),
(189,472,o),
(189,466,cs),
(189,357,o),
(189,351,o),
(189,242,cs),
(189,165,o),
(213,138,o),
(241,138,c),
(293,138,l),
(293,183,l),
(256,183,o),
(251,186,o),
(251,243,cs),
(251,270,ls),
(251,271,o),
(267,276,o),
(306,278,cs),
(346,279,o),
(360,245,o),
(360,176,cs),
(360,138,l),
(418,138,l),
(418,176,ls),
(418,245,o),
(433,279,o),
(469,278,cs),
(506,276,o),
(521,271,o),
(521,270,cs)
);
}
);
width = 668;
}
);
unicode = 3666;
},
{
glyphname = "three-thai";
layers = (
{
layerId = m01;
shapes = (
{
closed = 1;
nodes = (
(523,0,l),
(602,0,l),
(602,493,ls),
(602,502,o),
(573,511,o),
(482,511,cs),
(391,511,o),
(374,502,o),
(374,493,cs),
(367,403,o),
(352,338,o),
(335,338,cs),
(317,338,o),
(295,403,o),
(295,493,cs),
(295,502,o),
(265,511,o),
(174,511,cs),
(83,511,o),
(66,502,o),
(66,493,cs),
(66,0,l),
(204,0,l),
(204,79,l),
(152,79,o),
(146,83,o),
(146,179,c),
(146,225,ls),
(146,229,o),
(167,236,o),
(222,239,cs),
(278,243,o),
(299,183,o),
(299,66,cs),
(299,0,l),
(379,0,l),
(379,66,ls),
(379,183,o),
(399,243,o),
(451,239,cs),
(502,236,o),
(523,229,o),
(523,225,cs)
);
}
);
width = 668;
}
);
unicode = 3667;
},
{
glyphname = "four-thai";
layers = (
{
guides = (
{
angle = 90;
pos = (574,196);
},
{
pos = (678,58);
}
);
layerId = m01;
shapes = (
{
closed = 1;
nodes = (
(64,19,o),
(71,13,o),
(77,7,cs),
(84,-2,o),
(133,-2,o),
(162,-2,cs),
(604,-2,l),
(604,57,l),
(363,57,o),
(168,97,o),
(168,150,cs),
(168,202,o),
(363,243,o),
(604,243,c),
(604,506,l),
(523,506,l),
(523,456,o),
(321,441,o),
(68,441,cs),
(64,441,o),
(64,258,o),
(64,206,cs)
);
},
{
closed = 1;
nodes = (
(230,50,o),
(397,-2,o),
(604,-2,c),
(604,63,l),
(457,63,o),
(316,83,o),
(316,105,cs),
(316,129,o),
(453,146,o),
(508,146,c),
(508,202,l),
(347,189,o),
(230,150,o),
(230,99,cs)
);
}
);
width = 671;
}
);
unicode = 3668;
},
{
glyphname = "five-thai";
layers = (
{
guides = (
{
angle = 90;
pos = (380,465);
}
);
layerId = m01;
shapes = (
{
closed = 1;
nodes = (
(66,19,o),
(73,13,o),
(79,7,cs),
(86,-2,o),
(135,-2,o),
(163,-2,cs),
(605,-2,l),
(605,63,l),
(459,63,o),
(318,83,o),
(318,105,cs),
(318,129,o),
(454,146,o),
(510,146,c),
(510,202,l),
(352,189,o),
(236,151,o),
(232,102,c),
(193,115,o),
(170,132,o),
(170,150,cs),
(170,202,o),
(365,243,o),
(605,243,c),
(605,506,l),
(525,506,l),
(525,479,o),
(463,462,o),
(366,452,c),
(363,504,o),
(342,511,o),
(263,511,cs),
(184,511,o),
(153,511,o),
(149,454,cs),
(149,452,o),
(149,447,o),
(148,442,c),
(123,441,o),
(96,441,o),
(70,441,cs),
(66,441,o),
(66,258,o),
(66,206,cs)
);
},
{
closed = 1;
nodes = (
(187,427,o),
(217,440,o),
(258,440,cs),
(298,440,o),
(329,427,o),
(329,415,cs),
(329,402,o),
(298,388,o),
(258,388,cs),
(217,388,o),
(187,402,o),
(187,415,cs)
);
}
);
width = 671;
}
);
unicode = 3669;
},
{
glyphname = "six-thai";
layers = (
{
hints = (
{
name = _segment.curve.bottom;
origin = (0,0);
type = Segment;
}
);
layerId = m01;
shapes = (
{
closed = 1;
nodes = (
(602,87,l),
(602,367,l),
(146,367,l),
(146,511,l),
(66,511,l),
(66,318,l),
(67,318,ls),
(317,318,o),
(521,298,o),
(521,273,cs),
(521,249,o),
(317,229,o),
(67,229,cs),
(66,229,l),
(66,87,l)
);
}
);
width = 668;
}
);
unicode = 3670;
},
{
glyphname = "seven-thai";
layers = (
{
layerId = m01;
shapes = (
{
ref = "three-thai";
},
{
closed = 1;
nodes = (
(748,0,l),
(748,511,l),
(683,511,l),
(683,273,o),
(654,80,o),
(643,80,cs),
(631,80,o),
(602,255,o),
(602,493,c),
(602,0,l)
);
}
);
width = 814;
}
);
unicode = 3671;
},
{
glyphname = "eight-thai";
layers = (
{
guides = (
{
angle = 90;
pos = (551,167);
}
);
layerId = m01;
shapes = (
{
closed = 1;
nodes = (
(66,0,l),
(146,0,l),
(223,0,l),
(228,-1,l),
(271,33,l),
(491,-1,l),
(494,63,l),
(271,98,l),
(212,60,ls),
(177,37,o),
(141,89,o),
(141,153,cs),
(141,169,o),
(141,192,o),
(146,202,cs),
(151,214,o),
(216,239,o),
(313,239,cs),
(422,240,o),
(492,222,o),
(492,202,c),
(601,202,l),
(604,506,l),
(523,506,l),
(523,456,o),
(319,441,o),
(66,441,c)
);
},
{
closed = 1;
nodes = (
(492,-1,l),
(602,-1,l),
(602,147,l),
(492,147,l)
);
}
);
width = 668;
}
);
unicode = 3672;
},
{
glyphname = "nine-thai";
layers = (
{
guides = (
{
angle = 90;
pos = (397,552);
}
);
layerId = m01;
shapes = (
{
closed = 1;
nodes = (
(485,229,ls),
(601,229,o),
(601,259,o),
(601,493,c),
(468,493,l),
(461,431,o),
(438,386,o),
(412,386,c),
(412,229,l)
);
},
{
closed = 1;
nodes = (
(166,99,o),
(167,131,o),
(167,144,cs),
(168,183,o),
(173,195,o),
(180,195,c),
(205,195,ls),
(434,195,o),
(484,59,o),
(521,0,c),
(601,0,l),
(334,441,l),
(160,441,o),
(91,438,o),
(79,404,c),
(79,404,o),
(66,312,o),
(66,159,c),
(66,87,o),
(79,40,o),
(89,30,c),
(102,15,o),
(150,7,o),
(221,-1,cs),
(271,-6,o),
(303,-10,o),
(354,-10,c),
(362,38,l),
(252,38,o),
(201,57,o),
(180,82,cs)
);
}
);
width = 667;
}
);
unicode = 3673;
},
{
glyphname = zero;
layers = (
{
hints = (
{
horizontal = 1;
place = (-15, 91);
place = (-15, 91);
type = Stem;
},
{
horizontal = 1;
place = (494, -20);
target = down;
type = TopGhost;
},
{
horizontal = 1;
place = (452, 42);
place = (452, 42);
type = Stem;
},
{
place = (66, 71);
place = (66, 71);
type = Stem;
},
{
place = (579, 75);
place = (579, 75);
type = Stem;
}
);
layerId = m01;
shapes = (
{
closed = 1;
nodes = (
(184,501,o),
(98,484,o),
(86,459,cs),
(76,440,o),
(66,354,o),
(66,179,cs),
(66,96,o),
(76,44,o),
(86,32,cs),
(98,17,o),
(207,-8,o),
(361,-8,cs),
(514,-8,o),
(615,17,o),
(628,32,cs),
(638,44,o),
(647,96,o),
(647,179,cs),
(647,354,o),
(638,440,o),
(628,459,cs),
(615,484,o),
(525,501,o),
(354,501,cs)
);
},
{
closed = 1;
nodes = (
(513,194,o),
(575,163,o),
(575,142,c),
(575,114,o),
(474,83,o),
(354,83,cs),
(235,83,o),
(132,114,o),
(132,142,c),
(132,163,o),
(196,194,o),
(354,194,cs)
);
}
);
width = 713;
}
);
unicode = 48;
},
{
glyphname = one;
layers = (
{
hints = (
{
horizontal = 1;
origin = (0,0);
target = down;
type = TopGhost;
},
{
horizontal = 1;
origin = (0,1);
target = (0,0);
type = Stem;
},
{
place = (221, 1786);
place = (221, 1786);
type = Stem;
},
{
place = (66, 1786);
place = (66, 1786);
type = Stem;
}
);
layerId = m01;
shapes = (
{
closed = 1;
nodes = (
(66,509,l),
(66,267,l),
(82,267,o),
(104,267,o),
(133,261,c),
(212,242,o),
(221,198,o),
(221,104,c),
(221,71,o),
(221,36,o),
(221,0,c),
(302,0,l),
(304,509,l)
);
}
);
width = 371;
}
);
unicode = 49;
},
{
glyphname = two;
layers = (
{
hints = (
{
horizontal = 1;
origin = (0,21);
target = (0,28);
type = Stem;
},
{
horizontal = 1;
origin = (0,3);
target = (0,43);
type = Stem;
},
{
origin = (0,18);
target = (0,31);
type = Stem;
},
{
origin = (0,9);
target = (0,37);
type = Stem;
}
);
layerId = m01;
shapes = (
{
closed = 1;
nodes = (
(66,250,l),
(76,250,o),
(82,251,o),
(92,251,c),
(252,251,o),
(369,250,o),
(442,245,c),
(472,243,o),
(496,241,o),
(496,231,c),
(496,216,o),
(474,213,o),
(445,205,c),
(388,193,o),
(354,187,o),
(296,181,c),
(53,154,o),
(68,116,o),
(66,1,c),
(145,-1,o),
(222,-4,o),
(296,-4,c),
(412,-4,o),
(513,-7,o),
(596,1,c),
(596,71,l),
(515,71,o),
(436,67,o),
(362,67,c),
(264,67,o),
(214,69,o),
(214,74,c),
(214,114,o),
(321,124,o),
(530,161,c),
(618,176,o),
(598,198,o),
(598,380,c),
(598,453,o),
(608,486,o),
(563,491,c),
(492,498,o),
(413,502,o),
(329,502,c),
(202,502,o),
(110,495,o),
(66,488,c)
);
}
);
width = 666;
}
);
unicode = 50;
},
{
glyphname = three;
layers = (
{
hints = (
{
horizontal = 1;
origin = (0,32);
target = (0,25);
type = Stem;
},
{
horizontal = 1;
origin = (0,16);
target = (0,15);
type = Stem;
},
{
horizontal = 1;
origin = (0,3);
target = (0,65);
type = Stem;
},
{
origin = (0,22);
target = (0,38);
type = Stem;
},
{
origin = (0,9);
target = (0,59);
type = Stem;
}
);
layerId = m01;
shapes = (
{
closed = 1;
nodes = (
(66,251,l),
(130,252,o),
(197,253,o),
(263,253,c),
(320,253,o),
(377,246,o),
(436,238,c),
(453,237,o),
(470,229,o),
(470,222,c),
(470,208,o),
(432,198,o),
(367,190,c),
(295,182,o),
(193,184,o),
(66,183,c),
(66,129,l),
(205,125,o),
(311,129,o),
(380,120,c),
(441,112,o),
(475,100,o),
(475,90,c),
(475,77,o),
(404,57,o),
(288,57,c),
(238,57,o),
(163,62,o),
(66,63,c),
(66,4,l),
(135,-4,o),
(201,-7,o),
(264,-7,c),
(397,-7,o),
(491,3,o),
(537,13,c),
(573,20,o),
(571,35,o),
(571,79,c),
(571,97,o),
(571,118,o),
(563,127,c),
(559,133,o),
(526,153,o),
(501,153,c),
(498,153,o),
(487,151,o),
(485,151,c),
(479,151,o),
(472,151,o),
(472,156,c),
(472,169,o),
(491,162,o),
(498,162,c),
(512,162,o),
(532,176,o),
(554,188,c),
(575,199,o),
(570,221,o),
(570,242,c),
(570,394,o),
(573,451,o),
(540,454,c),
(495,459,o),
(429,470,o),
(347,470,c),
(285,470,o),
(191,471,o),
(66,459,c)
);
}
);
width = 637;
}
);
unicode = 51;
},
{
glyphname = four;
layers = (
{
hints = (
{
horizontal = 1;
origin = (0,22);
target = (1,3);
type = Stem;
},
{
horizontal = 1;
origin = (0,5);
target = down;
type = TopGhost;
},
{
horizontal = 1;
origin = (0,15);
target = (1,3);
type = Stem;
},
{
horizontal = 1;
origin = (0,18);
target = (1,3);
type = Stem;
},
{
horizontal = 1;
origin = (0,8);
target = (0,5);
type = Stem;
},
{
origin = (0,15);
target = (1,6);
type = Stem;
},
{
origin = (0,22);
target = (0,23);
type = Stem;
}
);
layerId = m01;
shapes = (
{
closed = 1;
nodes = (
(579,104,l),
(652,104,l),
(652,164,l),
(579,164,l),
(579,509,l),
(290,509,l),
(257,380,o),
(206,295,o),
(66,227,c),
(66,213,l),
(66,176,o),
(67,146,o),
(67,122,c),
(67,114,o),
(66,110,o),
(66,104,c),
(99,101,o),
(197,94,o),
(361,94,c),
(408,94,o),
(453,96,o),
(492,96,c),
(492,0,l),
(579,0,l)
);
},
{
closed = 1;
nodes = (
(492,164,l),
(483,164,o),
(477,164,o),
(468,164,c),
(249,164,o),
(139,170,o),
(139,188,c),
(139,204,o),
(178,204,o),
(244,217,c),
(299,228,o),
(383,222,o),
(492,227,c)
);
}
);
width = 718;
}
);
unicode = 52;
},
{
glyphname = five;
layers = (
{
hints = (
{
horizontal = 1;
origin = (0,19);
target = (0,12);
type = Stem;
},
{
horizontal = 1;
origin = (0,3);
target = (0,31);
type = Stem;
},
{
horizontal = 1;
origin = (0,38);
target = (0,45);
type = Stem;
},
{
horizontal = 1;
origin = (0,42);
target = down;
type = TopGhost;
},
{
origin = (0,16);
target = (0,34);
type = Stem;
},
{
origin = (0,6);
target = (0,25);
type = Stem;
}
);
layerId = m01;
shapes = (
{
closed = 1;
nodes = (
(66,130,l),
(107,131,o),
(149,132,o),
(187,132,c),
(390,132,o),
(496,124,o),
(496,99,c),
(496,79,o),
(389,62,o),
(345,62,cs),
(324,62,o),
(267,62,o),
(178,66,cs),
(139,68,o),
(101,70,o),
(66,74,c),
(66,5,l),
(120,-1,o),
(196,-6,o),
(289,-6,c),
(437,-6,o),
(537,6,o),
(566,13,c),
(605,20,o),
(603,43,o),
(603,103,c),
(603,200,o),
(598,184,o),
(483,196,c),
(445,199,o),
(370,201,o),
(262,201,c),
(221,201,o),
(179,200,o),
(139,199,c),
(139,265,l),
(139,265,o),
(163,268,o),
(279,268,cs),
(452,268,o),
(603,261,o),
(603,261,c),
(603,495,l),
(499,500,o),
(397,503,o),
(299,503,c),
(222,503,o),
(143,501,o),
(66,497,c)
);
}
);
width = 669;
}
);
unicode = 53;
},
{
glyphname = six;
layers = (
{
hints = (
{
horizontal = 1;
origin = (0,12);
target = (1,5);
type = Stem;
},
{
horizontal = 1;
origin = (1,11);
target = (0,24);
type = Stem;
},
{
horizontal = 1;
origin = (0,36);
target = (0,3);
type = Stem;
},
{
horizontal = 1;
origin = (0,3);
target = down;
type = TopGhost;
},
{
origin = (0,6);
target = (0,30);
type = Stem;
},
{
origin = (1,2);
target = (0,18);
type = Stem;
},
{
origin = (0,6);
target = (1,8);
type = Stem;
}
);
layerId = m01;
shapes = (
{
closed = 1;
nodes = (
(616,483,l),
(558,493,o),
(457,502,o),
(326,502,c),
(63,502,o),
(66,481,o),
(66,177,c),
(66,65,o),
(67,29,o),
(107,11,c),
(128,1,o),
(226,-7,o),
(396,-7,c),
(467,-7,o),
(508,-7,o),
(576,11,c),
(618,21,o),
(616,39,o),
(616,97,c),
(616,155,o),
(614,165,o),
(585,175,c),
(561,183,o),
(467,200,o),
(321,200,c),
(225,200,o),
(165,193,o),
(135,166,c),
(134,171,o),
(134,175,o),
(134,180,c),
(134,226,o),
(150,254,o),
(179,258,c),
(231,264,o),
(281,268,o),
(304,268,c),
(353,268,o),
(462,260,o),
(616,257,c)
);
},
{
closed = 1;
nodes = (
(455,134,o),
(521,113,o),
(521,94,c),
(521,71,o),
(458,59,o),
(337,59,c),
(221,59,o),
(150,80,o),
(150,100,c),
(150,121,o),
(214,134,o),
(338,134,c)
);
}
);
width = 682;
}
);
unicode = 54;
},
{
glyphname = seven;
layers = (
{
hints = (
{
horizontal = 1;
origin = (0,31);
target = down;
type = TopGhost;
},
{
horizontal = 1;
origin = (0,3);
target = (0,28);
type = Stem;
},
{
origin = (0,15);
target = (0,22);
type = Stem;
},
{
origin = (0,9);
target = (0,22);
type = Stem;
}
);
layerId = m01;
shapes = (
{
closed = 1;
nodes = (
(66,253,l),
(135,254,o),
(210,254,o),
(286,254,c),
(338,254,o),
(368,254,o),
(421,252,c),
(430,252,o),
(446,258,o),
(446,248,c),
(446,243,o),
(385,222,o),
(269,180,c),
(140,134,o),
(73,88,o),
(66,0,c),
(220,0,l),
(232,123,o),
(348,157,o),
(562,223,c),
(582,229,o),
(579,259,o),
(579,280,c),
(579,407,o),
(580,476,o),
(572,488,c),
(558,509,o),
(474,507,o),
(316,507,c),
(233,507,o),
(149,505,o),
(66,502,c)
);
}
);
width = 645;
}
);
unicode = 55;
},
{
glyphname = eight;
layers = (
{
hints = (
{
horizontal = 1;
origin = (0,26);
target = (2,5);
type = Stem;
},
{
horizontal = 1;
origin = (2,11);
target = (1,5);
type = Stem;
},
{
horizontal = 1;
origin = (0,53);
target = down;
type = TopGhost;
},
{
horizontal = 1;
origin = (1,14);
target = (0,53);
type = Stem;
},
{
origin = (0,20);
target = (2,8);
type = Stem;
},
{
origin = (2,2);
target = (0,32);
type = Stem;
},
{
origin = (0,8);
target = (1,11);
type = Stem;
},
{
origin = (1,2);
target = (0,44);
type = Stem;
}
);
layerId = m01;
shapes = (
{
closed = 1;
nodes = (
(194,501,o),
(106,487,o),
(94,480,c),
(74,471,o),
(66,446,o),
(66,410,c),
(66,383,o),
(70,370,o),
(71,344,c),
(73,215,o),
(41,182,o),
(163,164,c),
(171,163,o),
(184,168,o),
(184,159,c),
(184,151,o),
(171,155,o),
(162,154,c),
(62,136,o),
(69,128,o),
(69,80,c),
(69,46,o),
(65,31,o),
(89,19,c),
(96,14,o),
(187,-8,o),
(340,-8,c),
(492,-8,o),
(585,16,o),
(588,18,c),
(611,29,o),
(609,43,o),
(609,83,c),
(609,124,o),
(613,141,o),
(513,155,c),
(502,157,o),
(483,149,o),
(483,162,c),
(483,174,o),
(503,166,o),
(516,167,c),
(633,179,o),
(610,199,o),
(611,336,c),
(611,364,o),
(613,379,o),
(613,408,c),
(613,456,o),
(606,473,o),
(588,481,c),
(581,483,o),
(493,501,o),
(346,501,c)
);
},
{
closed = 1;
nodes = (
(442,267,o),
(512,246,o),
(512,232,c),
(512,212,o),
(441,193,o),
(341,193,c),
(304,193,o),
(284,198,o),
(246,200,c),
(188,204,o),
(154,219,o),
(154,232,c),
(154,250,o),
(224,267,o),
(338,267,c)
);
},
{
closed = 1;
nodes = (
(453,124,o),
(510,100,o),
(510,88,c),
(510,73,o),
(448,54,o),
(339,54,c),
(221,54,o),
(156,74,o),
(156,89,c),
(156,106,o),
(217,124,o),
(338,124,c)
);
}
);
width = 679;
}
);
unicode = 56;
},
{
glyphname = nine;
layers = (
{
hints = (
{
horizontal = 1;
origin = (0,3);
target = (0,36);
type = Stem;
},
{
horizontal = 1;
origin = (0,27);
target = (1,5);
type = Stem;
},
{
horizontal = 1;
origin = (1,11);
target = (0,15);
type = Stem;
},
{
origin = (0,21);
target = (1,8);
type = Stem;
},
{
origin = (0,33);
target = (0,9);
type = Stem;
},
{
origin = (1,2);
target = (0,9);
type = Stem;
}
);
layerId = m01;
shapes = (
{
closed = 1;
nodes = (
(72,1,l),
(207,-12,o),
(300,-10,o),
(354,-10,c),
(500,-10,o),
(580,5,o),
(593,61,c),
(607,129,o),
(606,202,o),
(606,277,c),
(606,423,o),
(606,472,o),
(572,477,c),
(479,490,o),
(388,496,o),
(297,496,c),
(239,496,o),
(173,494,o),
(100,483,c),
(63,477,o),
(66,414,o),
(66,283,c),
(66,179,o),
(64,135,o),
(105,132,c),
(235,124,o),
(326,119,o),
(373,119,c),
(461,119,o),
(515,131,o),
(530,157,c),
(531,158,o),
(532,156,o),
(532,155,c),
(532,68,o),
(445,64,o),
(271,64,c),
(187,64,o),
(120,70,o),
(72,73,c)
);
},
{
closed = 1;
nodes = (
(446,258,o),
(515,241,o),
(515,224,c),
(515,202,o),
(450,187,o),
(316,187,c),
(202,187,o),
(121,207,o),
(121,228,c),
(121,245,o),
(191,258,o),
(317,258,c)
);
}
);
width = 672;
}
);
unicode = 57;
},
{
glyphname = "maiyamok-thai";
layers = (
{
layerId = m01;
shapes = (
{
closed = 1;
nodes = (
(523,-92,l),
(602,-92,l),
(602,660,ls),
(602,665,o),
(573,671,o),
(482,671,cs),
(391,671,o),
(374,665,o),
(374,660,cs),
(367,604,o),
(352,563,o),
(335,563,cs),
(317,563,o),
(295,604,o),
(295,660,cs),
(295,665,o),
(265,671,o),
(174,671,cs),
(83,671,o),
(66,665,o),
(66,660,cs),
(66,353,l),
(204,353,l),
(204,402,l),
(152,402,o),
(146,404,o),
(146,463,c),
(146,493,ls),
(146,496,o),
(167,499,o),
(222,502,cs),
(278,504,o),
(299,466,o),
(299,394,cs),
(299,353,l),
(379,353,l),
(379,394,ls),
(379,466,o),
(399,504,o),
(451,502,cs),
(502,499,o),
(523,496,o),
(523,493,cs)
);
}
);
width = 668;
}
);
unicode = 3654;
},
{
glyphname = "paiyannoi-thai";
layers = (
{
hints = (
{
name = _segment.top_invert;
origin = (0,7);
type = Segment;
}
);
layerId = m01;
shapes = (
{
closed = 1;
nodes = (
(241,231,l),
(308,231,o),
(329,206,o),
(329,190,cs),
(329,0,l),
(409,0,l),
(409,479,l),
(66,479,l,{
GSSegment = {
name = _segment.top_invert;
};
}),
(66,229,l)
);
}
);
width = 475;
}
);
unicode = 3631;
},
{
glyphname = period;
layers = (
{
layerId = m01;
shapes = (
{
closed = 1;
nodes = (
(152,136,ls),
(152,150,o),
(146,153,o),
(107,153,cs),
(54,153,ls),
(15,153,o),
(9,149,o),
(9,135,cs),
(9,14,ls),
(9,2,o),
(15,0,o),
(54,0,c),
(120,0,l),
(141,0,o),
(152,3,o),
(152,14,c),
(152,60,l)
);
}
);
width = 218;
}
);
unicode = 46;
},
{
glyphname = baht;
layers = (
{
layerId = m01;
shapes = (
{
closed = 1;
nodes = (
(66,3,l),
(107,-3,o),
(196,-10,o),
(302,-10,c),
(444,-10,o),
(548,-4,o),
(610,4,c),
(656,9,o),
(667,10,o),
(667,72,c),
(667,96,o),
(666,116,o),
(663,121,c),
(654,146,o),
(601,139,o),
(570,151,c),
(609,166,o),
(654,163,o),
(658,186,c),
(663,205,o),
(666,238,o),
(666,256,c),
(666,279,o),
(664,290,o),
(663,313,c),
(660,407,o),
(669,464,o),
(645,480,c),
(631,490,o),
(510,504,o),
(288,504,c),
(149,504,o),
(71,496,o),
(66,496,c)
);
},
{
closed = 1;
nodes = (
(143,254,l),
(187,255,o),
(233,258,o),
(283,258,c),
(479,258,o),
(583,239,o),
(583,222,c),
(583,203,o),
(476,183,o),
(297,182,c),
(257,182,o),
(234,179,o),
(194,179,c),
(178,179,o),
(160,180,o),
(143,182,c)
);
},
{
closed = 1;
nodes = (
(143,118,l),
(173,121,o),
(208,120,o),
(242,120,c),
(421,120,o),
(534,112,o),
(579,93,c),
(583,91,o),
(589,88,o),
(589,84,c),
(589,68,o),
(489,53,o),
(322,53,c),
(270,53,o),
(209,54,o),
(143,57,c)
);
},
{
closed = 1;
nodes = (
(218,-51,l),
(259,-51,l),
(259,564,l),
(218,564,l)
);
}
);
width = 733;
}
);
unicode = 3647;
},
{
category = Mark;
glyphname = "maiHanaKat-thai";
kernRight = uppermarks;
layers = (
{
anchors = (
{
name = _topright;
pos = (-66,515);
},
{
name = topright;
pos = (-66,663);
}
);
hints = (
{
horizontal = 1;
origin = (1,4);
target = (0,3);
type = Stem;
},
{
origin = (1,1);
target = (1,8);
type = Stem;
}
);
layerId = m01;
shapes = (
{
closed = 1;
nodes = (
(-399,560,l),
(-66,560,l),
(-66,626,l),
(-399,626,l)
);
},
{
closed = 1;
nodes = (
(-530,709,l),
(-530,582,l),
(-530,563,o),
(-524,559,o),
(-486,561,c),
(-344,561,l),
(-305,563,o),
(-299,570,o),
(-299,592,c),
(-299,711,l)
);
}
);
width = 0;
}
);
script = thai;
subCategory = Nonspacing;
unicode = 3633;
},
{
category = Mark;
glyphname = "maiEk-thai";
kernRight = uppermarks;
layers = (
{
anchors = (
{
name = _topright;
pos = (-68,532);
}
);
hints = (
{
horizontal = 1;
origin = (0,0);
target = (0,3);
type = Stem;
},
{
origin = (0,0);
target = (0,1);
type = Stem;
}
);
layerId = m01;
shapes = (
{
closed = 1;
nodes = (
(-206,577,l),
(-68,577,l),
(-68,729,l),
(-206,729,l)
);
}
);
width = 0;
}
);
script = thai;
subCategory = Nonspacing;
unicode = 3656;
},
{
category = Mark;
glyphname = "maiTho-thai";
kernRight = uppermarks;
layers = (
{
anchors = (
{
name = _topright;
pos = (-57,493);
}
);
layerId = m01;
shapes = (
{
closed = 1;
nodes = (
(-144,536,o),
(-349,569,o),
(-349,706,c),
(-266,706,l),
(-260,650,o),
(-249,614,o),
(-237,614,cs),
(-226,614,o),
(-215,650,o),
(-208,706,c),
(-57,706,l),
(-57,536,l)
);
}
);
width = 9;
}
);
script = thai;
subCategory = Nonspacing;
unicode = 3657;
},
{
category = Mark;
glyphname = "maiTri-thai";
kernRight = uppermarks;
layers = (
{
anchors = (
{
name = _topright;
pos = (-57,491);
}
);
layerId = m01;
shapes = (
{
closed = 1;
nodes = (
(-304,536,l),
(-304,540,ls),
(-304,564,o),
(-291,584,o),
(-273,584,cs),
(-256,584,o),
(-243,564,o),
(-243,540,cs),
(-243,536,l),
(-165,536,l),
(-165,540,ls),
(-165,564,o),
(-151,584,o),
(-134,584,cs),
(-117,584,o),
(-103,564,o),
(-103,540,cs),
(-103,536,l),
(-57,536,l),
(-77,706,l),
(-167,706,l),
(-175,684,o),
(-187,586,o),
(-203,586,cs),
(-219,586,o),
(-235,684,o),
(-241,706,c),
(-329,706,l),
(-349,536,l)
);
}
);
width = 9;
}
);
script = thai;
subCategory = Nonspacing;
unicode = 3658;
},
{
category = Mark;
glyphname = "maiChattawa-thai";
kernRight = uppermarks;
layers = (
{
anchors = (
{
name = _topright;
pos = (-49,484);
}
);
hints = (
{
horizontal = 1;
origin = (1,0);
target = (0,3);
type = Stem;
},
{
horizontal = 1;
origin = (1,0);
target = (1,3);
type = Stem;
},
{
origin = (0,0);
target = (0,1);
type = Stem;
}
);
layerId = m01;
shapes = (
{
closed = 1;
nodes = (
(-167,529,l),
(-101,529,l),
(-101,699,l),
(-167,699,l)
);
},
{
closed = 1;
nodes = (
(-341,560,l),
(-49,560,l),
(-49,668,l),
(-341,668,l)
);
}
);
width = 0;
}
);
script = thai;
subCategory = Nonspacing;
unicode = 3659;
},
{
category = Mark;
glyphname = "thanthakhat-thai";
kernRight = uppermarks;
layers = (
{
anchors = (
{
name = _topright;
pos = (-66,518);
}
);
layerId = m01;
shapes = (
{
closed = 1;
nodes = (
(-348,559,o),
(-321,559,o),
(-236,559,cs),
(-155,559,o),
(-130,560,o),
(-130,587,cs),
(-130,595,o),
(-130,663,o),
(-131,671,cs),
(-135,723,o),
(-155,729,o),
(-235,729,cs),
(-313,729,o),
(-345,729,o),
(-348,672,cs),
(-349,663,o),
(-349,598,o),
(-349,587,cs)
);
},
{
closed = 1;
nodes = (
(-300,619,o),
(-274,626,o),
(-239,626,cs),
(-205,626,o),
(-179,619,o),
(-179,613,cs),
(-179,605,o),
(-205,598,o),
(-239,598,cs),
(-274,598,o),
(-300,605,o),
(-300,613,cs)
);
},
{
closed = 1;
nodes = (
(-235,650,l),
(-66,650,l),
(-66,729,l),
(-235,729,l)
);
}
);
width = 0;
}
);
script = thai;
subCategory = Nonspacing;
unicode = 3660;
},
{
category = Mark;
glyphname = "maitaikhu-thai";
kernRight = uppermarks;
layers = (
{
anchors = (
{
name = _topright;
pos = (-66,563);
}
);
layerId = m01;
shapes = (
{
closed = 1;
nodes = (
(-279,625,l),
(-137,607,l),
(-136,622,l),
(-136,607,l),
(-64,607,l),
(-64,678,l),
(-136,678,l),
(-136,654,l),
(-279,672,l),
(-318,652,ls),
(-340,639,o),
(-361,634,o),
(-361,699,c),
(-65,699,l),
(-65,778,l),
(-409,778,ls),
(-412,778,o),
(-416,763,o),
(-416,701,cs),
(-416,634,o),
(-412,608,o),
(-409,608,cs),
(-311,608,l),
(-307,607,l)
);
}
);
width = 0;
}
);
script = thai;
subCategory = Nonspacing;
unicode = 3655;
},
{
category = Mark;
glyphname = "saraI-thai";
kernRight = uppermarks;
layers = (
{
anchors = (
{
name = _topright;
pos = (-66,497);
},
{
name = topright;
pos = (-66,624);
}
);
hints = (
{
horizontal = 1;
place = (529, 21);
target = up;
type = BottomGhost;
},
{
horizontal = 1;
place = (625, 68);
place = (625, 68);
type = Stem;
},
{
place = (-563, 497);
place = (-563, 497);
type = Stem;
}
);
layerId = m01;
shapes = (
{
closed = 1;
nodes = (
(-563,559,l),
(-66,559,l),
(-66,624,l),
(-563,624,l)
);
}
);
width = 0;
}
);
script = thai;
subCategory = Nonspacing;
unicode = 3636;
},
{
category = Mark;
glyphname = "saraIi-thai";
kernRight = uppermarks;
layers = (
{
anchors = (
{
name = _topright;
pos = (-66,514);
},
{
name = topright;
pos = (-66,711);
}
);
hints = (
{
horizontal = 1;
origin = (1,1);
target = (1,0);
type = Stem;
},
{
origin = (1,1);
target = (1,2);
type = Stem;
}
);
layerId = m01;
shapes = (
{
ref = "saraI-thai";
},
{
closed = 1;
nodes = (
(-245,711,l),
(-245,612,l),
(-66,612,l),
(-66,711,l)
);
}
);
width = 0;
}
);
script = thai;
subCategory = Nonspacing;
unicode = 3637;
},
{
category = Mark;
glyphname = "saraUe-thai";
kernRight = uppermarks;
layers = (
{
anchors = (
{
name = _topright;
pos = (-66,514);
},
{
name = topright;
pos = (-66,717);
}
);
hints = (
{
horizontal = 1;
place = (614, 34);
place = (614, 34);
type = Stem;
},
{
horizontal = 1;
place = (727, 38);
place = (727, 38);
type = Stem;
},
{
place = (-179, 39);
place = (-179, 39);
type = Stem;
},
{
place = (-99, 33);
place = (-99, 33);
type = Stem;
}
);
layerId = m01;
shapes = (
{
ref = "saraI-thai";
},
{
closed = 1;
nodes = (
(-66,612,l),
(-66,715,ls),
(-66,724,o),
(-118,728,o),
(-143,728,cs),
(-170,728,o),
(-229,724,o),
(-229,715,cs),
(-229,612,l)
);
},
{
closed = 1;
nodes = (
(-179,651,o),
(-158,657,o),
(-136,657,cs),
(-112,657,o),
(-93,651,o),
(-93,642,cs),
(-93,633,o),
(-112,625,o),
(-136,625,cs),
(-158,625,o),
(-179,633,o),
(-179,642,cs)
);
}
);
width = 0;
}
);
script = thai;
subCategory = Nonspacing;
unicode = 3638;
},
{
category = Mark;
glyphname = "saraUee-thai";
kernRight = uppermarks;
layers = (
{
anchors = (
{
name = _topright;
pos = (-66,514);
},
{
name = topright;
pos = (-66,728);
}
);
hints = (
{
horizontal = 1;
place = (564, 174);
place = (564, 174);
type = Stem;
},
{
place = (-269, 80);
place = (-269, 80);
type = Stem;
},
{
place = (-154, 80);
place = (-154, 80);
type = Stem;
}
);
layerId = m01;
shapes = (
{
ref = "saraI-thai";
},
{
closed = 1;
nodes = (
(-66,613,l),
(-66,728,l),
(-118,728,l),
(-118,624,l),
(-157,624,l),
(-157,728,l),
(-264,728,l),
(-264,613,l)
);
}
);
width = 0;
}
);
script = thai;
subCategory = Nonspacing;
unicode = 3639;
},
{
glyphname = "nikhahit-thai";
layers = (
{
layerId = m01;
shapes = (
{
closed = 1;
nodes = (
(-32,530,o),
(-12,530,o),
(50,530,cs),
(109,530,o),
(128,531,o),
(128,555,cs),
(128,563,o),
(128,624,o),
(127,632,cs),
(124,679,o),
(109,685,o),
(51,685,cs),
(-7,685,o),
(-29,685,o),
(-32,633,cs),
(-33,625,o),
(-33,566,o),
(-33,555,cs)
);
},
{
closed = 1;
nodes = (
(3,596,o),
(22,605,o),
(47,605,cs),
(72,605,o),
(92,596,o),
(92,587,cs),
(92,576,o),
(72,566,o),
(47,566,cs),
(22,566,o),
(3,576,o),
(3,587,cs)
);
}
);
width = 194;
}
);
unicode = 3661;
},
{
category = Mark;
glyphname = "saraU-thai";
layers = (
{
anchors = (
{
name = _bottomright;
pos = (-66,7);
}
);
layerId = m01;
shapes = (
{
closed = 1;
nodes = (
(-66,-46,ls),
(-66,-39,o),
(-92,-35,o),
(-179,-35,cs),
(-266,-35,o),
(-283,-39,o),
(-283,-46,c),
(-283,-122,l),
(-143,-122,o),
(-143,-137,o),
(-143,-187,c),
(-66,-187,l)
);
}
);
width = 0;
}
);
script = thai;
subCategory = Nonspacing;
unicode = 3640;
},
{
category = Mark;
glyphname = "saraUu-thai";
layers = (
{
anchors = (
{
name = _bottomright;
pos = (-66,7);
}
);
layerId = m01;
shapes = (
{
closed = 1;
nodes = (
(-66,-187,l),
(-66,-41,l),
(-143,-41,l),
(-143,-151,l),
(-184,-151,o),
(-189,-125,o),
(-197,-46,c),
(-197,-39,o),
(-222,-35,o),
(-300,-35,cs),
(-387,-35,o),
(-393,-39,o),
(-393,-46,c),
(-393,-122,l),
(-256,-122,o),
(-256,-137,o),
(-256,-187,c)
);
}
);
width = 0;
}
);
script = thai;
subCategory = Nonspacing;
unicode = 3641;
},
{
export = 0;
glyphname = _segment.top_invert;
layers = (
{
anchors = (
{
name = end;
pos = (579,31);
},
{
name = start;
pos = (-1,31);
}
);
layerId = m01;
shapes = (
{
closed = 0;
nodes = (
(-1,31,l),
(-1,8,o),
(8,3,o),
(31,0,c),
(48,-3,o),
(135,31,o),
(280,31,cs),
(435,31,o),
(527,-3,o),
(546,0,c),
(570,3,o),
(579,8,o),
(579,31,c)
);
}
);
width = 179;
}
);
},
{
export = 0;
glyphname = _segment.curve.bottom;
layers = (
{
anchors = (
{
name = end;
pos = (536,81);
},
{
name = start;
pos = (0,81);
}
);
layerId = m01;
shapes = (
{
closed = 0;
nodes = (
(0,81,l),
(0,51,o),
(3,34,o),
(33,20,c),
(60,6,o),
(167,-7,o),
(268,-7,cs),
(369,-7,o),
(476,6,o),
(503,20,cs),
(533,34,o),
(536,51,o),
(536,81,c)
);
}
);
width = 536;
}
);
},
{
export = 0;
glyphname = _segment.curve.inner;
layers = (
{
anchors = (
{
name = end;
pos = (80,-21);
},
{
name = start;
pos = (456,-22);
}
);
layerId = m01;
shapes = (
{
closed = 0;
nodes = (
(456,-22,l),
(455,46,o),
(398,58,o),
(268,58,cs),
(138,58,o),
(80,46,o),
(80,-21,c)
);
}
);
width = 536;
}
);
},
{
export = 0;
glyphname = _segment.curve.top;
layers = (
{
anchors = (
{
name = end;
pos = (28,215);
},
{
name = start;
pos = (563,215);
}
);
layerId = m01;
shapes = (
{
closed = 0;
nodes = (
(563,215,l),
(563,129,o),
(562,29,o),
(543,16,cs),
(531,8,o),
(424,-4,o),
(300,-4,cs),
(176,-4,o),
(60,8,o),
(48,16,cs),
(29,28,o),
(28,129,o),
(28,215,c)
);
}
);
width = 536;
}
);
},
{
export = 0;
glyphname = _segment.curve.inner.shallow;
layers = (
{
anchors = (
{
name = end;
pos = (521,0);
},
{
name = start;
pos = (145,0);
}
);
layerId = m01;
shapes = (
{
closed = 0;
nodes = (
(145,0,ls),
(145,13,o),
(207,26,o),
(329,30,c),
(433,30,o),
(521,17,o),
(521,0,cs)
);
}
);
width = 536;
}
);
},
